<svg xmlns="http://www.w3.org/2000/svg" width="370.589" height="370.589" viewBox="0 0 370.589 370.589"><g fill="#FED42A"><path d="M5.806 224.753c-7.74 7.74-7.74 20.29.002 28.034L15.922 262.9l24.18-9.46-9.112 24.53 50.81 50.812 39.015-22.66-19.858 41.815L117.8 364.78c7.743 7.744 20.293 7.744 28.034.003l91.812-91.812L97.618 132.94 5.806 224.754zM358.83 11.84l-.082-.082c-9.66-9.66-21.98-13.478-35.63-11.043-27.59 4.924-56.52 34.86-77.385 80.087-5.788 12.546-13.997 19.607-25.1 21.588-21.312 3.803-48.294-11.74-64.345-27.792-3.362-3.362-8.814-3.36-12.176 0l-16.685 16.687 24.65 24.65c3.203 3.203 3.203 8.393 0 11.595-3.2 3.202-8.392 3.202-11.593 0l-24.65-24.65-6.18 6.177c-3.363 3.364-3.363 8.815 0 12.178l139.702 139.703c3.36 3.36 8.812 3.36 12.177-.002l34.458-34.458c3.362-3.362 3.363-8.814.002-12.177-16.05-16.05-31.595-43.033-27.792-64.343 1.98-11.103 9.042-19.312 21.588-25.1 45.226-20.865 75.163-49.793 80.087-77.383C372.31 33.822 368.49 21.5 358.83 11.84zm-15.774 36.906c-5.857 5.857-15.354 5.857-21.213 0-5.856-5.858-5.856-15.355 0-21.213 5.858-5.858 15.355-5.858 21.213 0 5.858 5.858 5.858 15.355 0 21.213z"/></g></svg>